<svg width="132" height="39" viewBox="0 0 132 39" fill="none" xmlns="http://www.w3.org/2000/svg">
<path d="M50.112 13.576C51.552 13.576 52.7414 13.9547 53.68 14.712C54.6294 15.4693 55.2427 16.4933 55.52 17.784H52.624C52.4107 17.2613 52.08 16.8507 51.632 16.552C51.1947 16.2533 50.672 16.104 50.064 16.104C49.264 16.104 48.6187 16.3973 48.128 16.984C47.6374 17.5707 47.392 18.3547 47.392 19.336C47.392 20.3173 47.6374 21.1013 48.128 21.688C48.6187 22.264 49.264 22.552 50.064 22.552C50.672 22.552 51.1947 22.4027 51.632 22.104C52.08 21.8053 52.4107 21.4 52.624 20.888H55.52C55.2427 22.168 54.6294 23.192 53.68 23.96C52.7414 24.7173 51.552 25.096 50.112 25.096C49.0134 25.096 48.048 24.856 47.216 24.376C46.384 23.8853 45.7387 23.2027 45.28 22.328C44.832 21.4533 44.608 20.456 44.608 19.336C44.608 18.216 44.832 17.2187 45.28 16.344C45.7387 15.4693 46.384 14.792 47.216 14.312C48.048 13.8213 49.0134 13.576 50.112 13.576Z" fill="white"/>
<path d="M59.7894 17.752C60.1307 17.208 60.5681 16.776 61.1014 16.456C61.6454 16.136 62.2321 15.976 62.8614 15.976V18.904H62.0774C61.3521 18.904 60.7867 19.0587 60.3814 19.368C59.9867 19.6773 59.7894 20.2 59.7894 20.936V25H57.0534V16.072H59.7894V17.752Z" fill="white"/>
<path d="M66.0705 16.072L68.2145 21.544L70.2145 16.072H73.2385L67.6705 29.256H64.6625L66.7585 24.664L63.0145 16.072H66.0705Z" fill="white"/>
<path d="M79.7152 15.96C80.4512 15.96 81.1072 16.1467 81.6832 16.52C82.2698 16.8827 82.7285 17.4107 83.0592 18.104C83.4005 18.7867 83.5712 19.5973 83.5712 20.536C83.5712 21.464 83.4005 22.2747 83.0592 22.968C82.7285 23.6613 82.2698 24.1947 81.6832 24.568C81.1072 24.9307 80.4512 25.112 79.7152 25.112C79.0325 25.112 78.4458 24.9573 77.9552 24.648C77.4645 24.3387 77.1072 23.9173 76.8832 23.384V29.256H74.1472V16.072H76.8832V17.688C77.1072 17.1547 77.4645 16.7333 77.9552 16.424C78.4458 16.1147 79.0325 15.96 79.7152 15.96ZM78.8352 18.36C78.2592 18.36 77.7845 18.5573 77.4112 18.952C77.0485 19.336 76.8672 19.864 76.8672 20.536C76.8672 21.1973 77.0485 21.7253 77.4112 22.12C77.7845 22.5147 78.2592 22.712 78.8352 22.712C79.4218 22.712 79.8912 22.52 80.2432 22.136C80.6058 21.752 80.7872 21.2187 80.7872 20.536C80.7872 19.8533 80.6058 19.32 80.2432 18.936C79.8912 18.552 79.4218 18.36 78.8352 18.36Z" fill="white"/>
<path d="M90.0469 22.648V25H88.8149C87.7696 25 86.9536 24.744 86.3669 24.232C85.7909 23.7093 85.5029 22.8507 85.5029 21.656V18.376H84.3029V16.072H85.5029V13.88H88.2389V16.072H90.0309V18.376H88.2389V21.704C88.2389 22.056 88.3082 22.3013 88.4469 22.44C88.5962 22.5787 88.8416 22.648 89.1829 22.648H90.0469Z" fill="white"/>
<path d="M95.7607 15.96C96.646 15.96 97.4353 16.1467 98.1287 16.52C98.8327 16.8827 99.382 17.4107 99.7767 18.104C100.182 18.7973 100.385 19.608 100.385 20.536C100.385 21.464 100.182 22.2747 99.7767 22.968C99.382 23.6613 98.8327 24.1947 98.1287 24.568C97.4353 24.9307 96.646 25.112 95.7607 25.112C94.8753 25.112 94.0807 24.9307 93.3767 24.568C92.6727 24.1947 92.118 23.6613 91.7127 22.968C91.318 22.2747 91.1207 21.464 91.1207 20.536C91.1207 19.608 91.318 18.7973 91.7127 18.104C92.118 17.4107 92.6727 16.8827 93.3767 16.52C94.0807 16.1467 94.8753 15.96 95.7607 15.96ZM95.7607 18.328C95.238 18.328 94.7953 18.52 94.4327 18.904C94.0807 19.2773 93.9047 19.8213 93.9047 20.536C93.9047 21.2507 94.0807 21.7947 94.4327 22.168C94.7953 22.5413 95.238 22.728 95.7607 22.728C96.2833 22.728 96.7207 22.5413 97.0727 22.168C97.4247 21.7947 97.6007 21.2507 97.6007 20.536C97.6007 19.8213 97.4247 19.2773 97.0727 18.904C96.7207 18.52 96.2833 18.328 95.7607 18.328Z" fill="white"/>
<path d="M111.659 19.336C111.659 20.4773 111.425 21.4747 110.955 22.328C110.497 23.1707 109.819 23.8267 108.923 24.296C108.038 24.7653 106.977 25 105.739 25H101.963V13.704H105.739C106.977 13.704 108.038 13.9387 108.923 14.408C109.819 14.8667 110.497 15.5173 110.955 16.36C111.425 17.2027 111.659 18.1947 111.659 19.336ZM105.595 23.352C106.95 23.352 107.99 23 108.715 22.296C109.441 21.592 109.803 20.6053 109.803 19.336C109.803 18.0667 109.441 17.08 108.715 16.376C107.99 15.672 106.95 15.32 105.595 15.32H103.787V23.352H105.595Z" fill="white"/>
<path d="M115.319 15.176V18.6H119.479V20.008H115.319V23.512H119.959V25H113.495V13.704H119.959V15.176H115.319Z" fill="white"/>
<path d="M122.865 13.704L126.113 23.048L129.377 13.704H131.361L127.281 25H124.945L120.881 13.704H122.865Z" fill="white"/>
<path d="M50.112 13.576C51.552 13.576 52.7414 13.9547 53.68 14.712C54.6294 15.4693 55.2427 16.4933 55.52 17.784H52.624C52.4107 17.2613 52.08 16.8507 51.632 16.552C51.1947 16.2533 50.672 16.104 50.064 16.104C49.264 16.104 48.6187 16.3973 48.128 16.984C47.6374 17.5707 47.392 18.3547 47.392 19.336C47.392 20.3173 47.6374 21.1013 48.128 21.688C48.6187 22.264 49.264 22.552 50.064 22.552C50.672 22.552 51.1947 22.4027 51.632 22.104C52.08 21.8053 52.4107 21.4 52.624 20.888H55.52C55.2427 22.168 54.6294 23.192 53.68 23.96C52.7414 24.7173 51.552 25.096 50.112 25.096C49.0134 25.096 48.048 24.856 47.216 24.376C46.384 23.8853 45.7387 23.2027 45.28 22.328C44.832 21.4533 44.608 20.456 44.608 19.336C44.608 18.216 44.832 17.2187 45.28 16.344C45.7387 15.4693 46.384 14.792 47.216 14.312C48.048 13.8213 49.0134 13.576 50.112 13.576Z" fill="white"/>
<path d="M59.7894 17.752C60.1307 17.208 60.5681 16.776 61.1014 16.456C61.6454 16.136 62.2321 15.976 62.8614 15.976V18.904H62.0774C61.3521 18.904 60.7867 19.0587 60.3814 19.368C59.9867 19.6773 59.7894 20.2 59.7894 20.936V25H57.0534V16.072H59.7894V17.752Z" fill="white"/>
<path d="M66.0705 16.072L68.2145 21.544L70.2145 16.072H73.2385L67.6705 29.256H64.6625L66.7585 24.664L63.0145 16.072H66.0705Z" fill="white"/>
<path d="M79.7152 15.96C80.4512 15.96 81.1072 16.1467 81.6832 16.52C82.2698 16.8827 82.7285 17.4107 83.0592 18.104C83.4005 18.7867 83.5712 19.5973 83.5712 20.536C83.5712 21.464 83.4005 22.2747 83.0592 22.968C82.7285 23.6613 82.2698 24.1947 81.6832 24.568C81.1072 24.9307 80.4512 25.112 79.7152 25.112C79.0325 25.112 78.4458 24.9573 77.9552 24.648C77.4645 24.3387 77.1072 23.9173 76.8832 23.384V29.256H74.1472V16.072H76.8832V17.688C77.1072 17.1547 77.4645 16.7333 77.9552 16.424C78.4458 16.1147 79.0325 15.96 79.7152 15.96ZM78.8352 18.36C78.2592 18.36 77.7845 18.5573 77.4112 18.952C77.0485 19.336 76.8672 19.864 76.8672 20.536C76.8672 21.1973 77.0485 21.7253 77.4112 22.12C77.7845 22.5147 78.2592 22.712 78.8352 22.712C79.4218 22.712 79.8912 22.52 80.2432 22.136C80.6058 21.752 80.7872 21.2187 80.7872 20.536C80.7872 19.8533 80.6058 19.32 80.2432 18.936C79.8912 18.552 79.4218 18.36 78.8352 18.36Z" fill="white"/>
<path d="M90.0469 22.648V25H88.8149C87.7696 25 86.9536 24.744 86.3669 24.232C85.7909 23.7093 85.5029 22.8507 85.5029 21.656V18.376H84.3029V16.072H85.5029V13.88H88.2389V16.072H90.0309V18.376H88.2389V21.704C88.2389 22.056 88.3082 22.3013 88.4469 22.44C88.5962 22.5787 88.8416 22.648 89.1829 22.648H90.0469Z" fill="white"/>
<path d="M95.7607 15.96C96.646 15.96 97.4353 16.1467 98.1287 16.52C98.8327 16.8827 99.382 17.4107 99.7767 18.104C100.182 18.7973 100.385 19.608 100.385 20.536C100.385 21.464 100.182 22.2747 99.7767 22.968C99.382 23.6613 98.8327 24.1947 98.1287 24.568C97.4353 24.9307 96.646 25.112 95.7607 25.112C94.8753 25.112 94.0807 24.9307 93.3767 24.568C92.6727 24.1947 92.118 23.6613 91.7127 22.968C91.318 22.2747 91.1207 21.464 91.1207 20.536C91.1207 19.608 91.318 18.7973 91.7127 18.104C92.118 17.4107 92.6727 16.8827 93.3767 16.52C94.0807 16.1467 94.8753 15.96 95.7607 15.96ZM95.7607 18.328C95.238 18.328 94.7953 18.52 94.4327 18.904C94.0807 19.2773 93.9047 19.8213 93.9047 20.536C93.9047 21.2507 94.0807 21.7947 94.4327 22.168C94.7953 22.5413 95.238 22.728 95.7607 22.728C96.2833 22.728 96.7207 22.5413 97.0727 22.168C97.4247 21.7947 97.6007 21.2507 97.6007 20.536C97.6007 19.8213 97.4247 19.2773 97.0727 18.904C96.7207 18.52 96.2833 18.328 95.7607 18.328Z" fill="white"/>
<path d="M111.659 19.336C111.659 20.4773 111.425 21.4747 110.955 22.328C110.497 23.1707 109.819 23.8267 108.923 24.296C108.038 24.7653 106.977 25 105.739 25H101.963V13.704H105.739C106.977 13.704 108.038 13.9387 108.923 14.408C109.819 14.8667 110.497 15.5173 110.955 16.36C111.425 17.2027 111.659 18.1947 111.659 19.336ZM105.595 23.352C106.95 23.352 107.99 23 108.715 22.296C109.441 21.592 109.803 20.6053 109.803 19.336C109.803 18.0667 109.441 17.08 108.715 16.376C107.99 15.672 106.95 15.32 105.595 15.32H103.787V23.352H105.595Z" fill="white"/>
<path d="M115.319 15.176V18.6H119.479V20.008H115.319V23.512H119.959V25H113.495V13.704H119.959V15.176H115.319Z" fill="white"/>
<path d="M122.865 13.704L126.113 23.048L129.377 13.704H131.361L127.281 25H124.945L120.881 13.704H122.865Z" fill="white"/>
<g clip-path="url(#clip0_6_12)">
<path d="M30.569 14.8428C30.4121 14.9895 31.0248 14.7543 19.6848 18.3483C19.4189 18.4324 19.9834 18.5597 8.65193 14.9685C8.65117 14.9685 8.65041 14.9677 8.64965 14.9677C8.29644 14.8572 8.15544 14.4527 8.25507 14.203C8.25507 14.0818 8.1709 14.2507 19.0182 0.235973C19.2634 -0.0786195 19.7373 -0.0786957 19.9826 0.235973C30.9134 14.359 30.7458 14.0776 30.7458 14.203C30.8251 14.4012 30.737 14.7138 30.569 14.8428Z" fill="url(#paint0_linear_6_12)"/>
<path d="M30.569 14.8428C30.4121 14.9895 31.0248 14.7543 19.6848 18.3483C19.4189 18.4324 19.9834 18.5597 8.65193 14.9685C8.65117 14.9685 8.65041 14.9677 8.64965 14.9677C8.29644 14.8572 8.15544 14.4527 8.25507 14.203C8.25507 14.0818 8.1709 14.2507 19.0182 0.235973C19.2634 -0.0786195 19.7373 -0.0786957 19.9826 0.235973C30.9134 14.359 30.7458 14.0776 30.7458 14.203C30.8251 14.4012 30.737 14.7138 30.569 14.8428Z" fill="url(#paint1_linear_6_12)"/>
<path d="M19.0331 38.7819L8.369 26.0436C7.97907 25.5777 8.44128 24.888 9.02035 25.0716L19.5004 28.393L29.9804 25.0716C30.5593 24.888 31.0219 25.5777 30.6318 26.0436L19.9676 38.7819C19.7241 39.073 19.2764 39.0724 19.0331 38.7819Z" fill="url(#paint2_linear_6_12)"/>
<path d="M19.0331 38.7819L8.369 26.0436C7.97907 25.5777 8.44128 24.888 9.02035 25.0716L19.5004 28.393L29.9804 25.0716C30.5593 24.888 31.0219 25.5777 30.6318 26.0436L19.9676 38.7819C19.7241 39.073 19.2764 39.0724 19.0331 38.7819Z" fill="url(#paint3_linear_6_12)"/>
<path d="M30.3489 23.6339C18.9083 27.2598 19.6417 27.0418 19.5004 27.0418C19.3523 27.0418 20.0529 27.2472 8.65191 23.6339C8.08671 23.4534 8.08709 22.6519 8.65191 22.4715L11.5328 21.5584C11.6683 21.5154 11.1992 21.3943 19.316 23.9668C19.4315 24.0033 19.5625 24.0054 19.6846 23.9668L27.2837 21.5584C27.4136 21.5172 27.2164 21.4787 30.3488 22.4715C30.9141 22.6519 30.9137 23.4535 30.3489 23.6339Z" fill="url(#paint4_linear_6_12)"/>
<path d="M30.3489 23.6339C18.9083 27.2598 19.6417 27.0418 19.5004 27.0418C19.3523 27.0418 20.0529 27.2472 8.65191 23.6339C8.08671 23.4534 8.08709 22.6519 8.65191 22.4715L11.5328 21.5584C11.6683 21.5154 11.1992 21.3943 19.316 23.9668C19.4315 24.0033 19.5625 24.0054 19.6846 23.9668L27.2837 21.5584C27.4136 21.5172 27.2164 21.4787 30.3488 22.4715C30.9141 22.6519 30.9137 23.4535 30.3489 23.6339Z" fill="url(#paint5_linear_6_12)"/>
<path d="M30.3489 19.3057C18.9083 22.9316 19.6417 22.7136 19.5004 22.7136C19.3523 22.7136 20.0529 22.919 8.65191 19.3057C8.08671 19.1252 8.08709 18.3236 8.65191 18.1433C11.7778 17.1526 11.5855 17.1885 11.7176 17.2304C19.8826 19.8182 19.359 19.6667 19.5004 19.6667C19.6415 19.6667 19.1153 19.8192 27.2832 17.2304C27.4136 17.1891 27.2183 17.1511 30.3489 18.1433C30.9142 18.3238 30.9137 19.1254 30.3489 19.3057Z" fill="url(#paint6_linear_6_12)"/>
<path d="M30.3489 19.3057C18.9083 22.9316 19.6417 22.7136 19.5004 22.7136C19.3523 22.7136 20.0529 22.919 8.65191 19.3057C8.08671 19.1252 8.08709 18.3236 8.65191 18.1433C11.7778 17.1526 11.5855 17.1885 11.7176 17.2304C19.8826 19.8182 19.359 19.6667 19.5004 19.6667C19.6415 19.6667 19.1153 19.8192 27.2832 17.2304C27.4136 17.1891 27.2183 17.1511 30.3489 18.1433C30.9142 18.3238 30.9137 19.1254 30.3489 19.3057Z" fill="url(#paint7_linear_6_12)"/>
</g>
<defs>
<linearGradient id="paint0_linear_6_12" x1="19.4996" y1="0" x2="19.4996" y2="18.3765" gradientUnits="userSpaceOnUse">
<stop stop-color="#7000FF"/>
<stop offset="0.869792" stop-color="#1B166A"/>
</linearGradient>
<linearGradient id="paint1_linear_6_12" x1="19.4996" y1="0" x2="19.4996" y2="18.3765" gradientUnits="userSpaceOnUse">
<stop stop-color="#7000FF"/>
<stop offset="0.869792" stop-color="#1B166A"/>
</linearGradient>
<linearGradient id="paint2_linear_6_12" x1="19.5004" y1="25.0412" x2="19.5004" y2="39" gradientUnits="userSpaceOnUse">
<stop offset="0.151042" stop-color="#1B166A"/>
<stop offset="1" stop-color="#7000FF"/>
</linearGradient>
<linearGradient id="paint3_linear_6_12" x1="19.5004" y1="25.0412" x2="19.5004" y2="39" gradientUnits="userSpaceOnUse">
<stop offset="0.151042" stop-color="#1B166A"/>
<stop offset="1" stop-color="#7000FF"/>
</linearGradient>
<linearGradient id="paint4_linear_6_12" x1="19.5004" y1="21.5422" x2="19.5004" y2="27.0443" gradientUnits="userSpaceOnUse">
<stop offset="0.182292" stop-color="#1B166A"/>
<stop offset="1" stop-color="#7000FF"/>
</linearGradient>
<linearGradient id="paint5_linear_6_12" x1="19.5004" y1="21.5422" x2="19.5004" y2="27.0443" gradientUnits="userSpaceOnUse">
<stop offset="0.182292" stop-color="#1B166A"/>
<stop offset="1" stop-color="#7000FF"/>
</linearGradient>
<linearGradient id="paint6_linear_6_12" x1="19.5004" y1="17.2142" x2="19.5004" y2="22.7161" gradientUnits="userSpaceOnUse">
<stop stop-color="#7000FF"/>
<stop offset="0.869792" stop-color="#1B166A"/>
</linearGradient>
<linearGradient id="paint7_linear_6_12" x1="19.5004" y1="17.2142" x2="19.5004" y2="22.7161" gradientUnits="userSpaceOnUse">
<stop stop-color="#7000FF"/>
<stop offset="0.869792" stop-color="#1B166A"/>
</linearGradient>
<clipPath id="clip0_6_12">
<rect width="39" height="39" fill="white"/>
</clipPath>
</defs>
</svg>
